<svg xmlns="http://www.w3.org/2000/svg" width="455.2831726074219" height="435.0633544921875" viewBox="-113.81551361083984 -149.0125274658203 455.2831726074219 435.0633544921875"><title>Neo4j Graph Visualization</title><desc>Created using Neo4j (http://www.neo4j.com/)</desc><g class="layer relationships"><g class="relationship" transform="translate(106.65891487088781 72.25239266930116) rotate(407.5295765735689)"><path class="outline" fill="#A5ABB6" stroke="none" d="M 40 0.5 L 46.77971379595188 0.5 L 46.77971379595188 -0.5 L 40 -0.5 Z M 115.45549504595188 0.5 L 122.23520884190376 0.5 L 122.23520884190376 3.5 L 129.23520884190376 0 L 122.23520884190376 -3.5 L 122.23520884190376 -0.5 L 115.45549504595188 -0.5 Z"/><text text-anchor="middle" pointer-events="none" font-size="8px" fill="#000000" x="81.11760442095188" y="3" font-family="sans-serif">IS_CONNECTED</text></g><g class="relationship" transform="translate(106.65891487088781 72.25239266930116) rotate(372.8058670730562)"><path class="outline" fill="#A5ABB6" stroke="none" d="M 40 0.5 L 50.373143828913584 0.5 L 50.373143828913584 -0.5 L 40 -0.5 Z M 119.04892507891358 0.5 L 129.42206890782717 0.5 L 129.42206890782717 3.5 L 136.42206890782717 0 L 129.42206890782717 -3.5 L 129.42206890782717 -0.5 L 119.04892507891358 -0.5 Z"/><text text-anchor="middle" pointer-events="none" font-size="8px" fill="#000000" x="84.71103445391358" y="3" font-family="sans-serif">IS_CONNECTED</text></g><g class="relationship" transform="translate(106.65891487088781 72.25239266930116) rotate(348.87463730571085)"><path class="outline" fill="#A5ABB6" stroke="none" d="M 40 0.5 L 59.39370492815161 0.5 L 59.39370492815161 -0.5 L 40 -0.5 Z M 128.0694861781516 0.5 L 147.4631911063032 0.5 L 147.4631911063032 3.5 L 154.4631911063032 0 L 147.4631911063032 -3.5 L 147.4631911063032 -0.5 L 128.0694861781516 -0.5 Z"/><text text-anchor="middle" pointer-events="none" font-size="8px" fill="#000000" x="93.7315955531516" y="3" font-family="sans-serif">IS_CONNECTED</text></g><g class="relationship" transform="translate(106.65891487088781 72.25239266930116) rotate(269.57157870798875)"><path class="outline" fill="#A5ABB6" stroke="none" d="M 40 0.5 L 50.79704332476594 0.5 L 50.79704332476594 -0.5 L 40 -0.5 Z M 119.47282457476594 0.5 L 130.26986789953187 0.5 L 130.26986789953187 3.5 L 137.26986789953187 0 L 130.26986789953187 -3.5 L 130.26986789953187 -0.5 L 119.47282457476594 -0.5 Z"/><text text-anchor="middle" pointer-events="none" font-size="8px" fill="#000000" x="85.13493394976594" y="3" transform="rotate(180 85.13493394976594 0)" font-family="sans-serif">IS_CONNECTED</text></g><g class="relationship" transform="translate(106.65891487088781 72.25239266930116) rotate(191.57097346100107)"><path class="outline" fill="#A5ABB6" stroke="none" d="M 40 0.5 L 51.96221169616307 0.5 L 51.96221169616307 -0.5 L 40 -0.5 Z M 120.63799294616307 0.5 L 132.60020464232613 0.5 L 132.60020464232613 3.5 L 139.60020464232613 0 L 132.60020464232613 -3.5 L 132.60020464232613 -0.5 L 120.63799294616307 -0.5 Z"/><text text-anchor="middle" pointer-events="none" font-size="8px" fill="#000000" x="86.30010232116307" y="3" transform="rotate(180 86.30010232116307 0)" font-family="sans-serif">IS_CONNECTED</text></g><g class="relationship" transform="translate(106.65891487088781 72.25239266930116) rotate(518.4146386949969)"><path class="outline" fill="#A5ABB6" stroke="none" d="M 40 0.5 L 57.054047484685796 0.5 L 57.054047484685796 -0.5 L 40 -0.5 Z M 125.7298287346858 0.5 L 142.7838762193716 0.5 L 142.7838762193716 3.5 L 149.7838762193716 0 L 142.7838762193716 -3.5 L 142.7838762193716 -0.5 L 125.7298287346858 -0.5 Z"/><text text-anchor="middle" pointer-events="none" font-size="8px" fill="#000000" x="91.3919381096858" y="3" transform="rotate(180 91.3919381096858 0)" font-family="sans-serif">IS_CONNECTED</text></g><g class="relationship" transform="translate(106.65891487088781 72.25239266930116) rotate(479.1524523979188)"><path class="outline" fill="#A5ABB6" stroke="none" d="M 40 0.5 L 50.054782126718294 0.5 L 50.054782126718294 -0.5 L 40 -0.5 Z M 118.7305633767183 0.5 L 128.7853455034366 0.5 L 128.7853455034366 3.5 L 135.7853455034366 0 L 128.7853455034366 -3.5 L 128.7853455034366 -0.5 L 118.7305633767183 -0.5 Z"/><text text-anchor="middle" pointer-events="none" font-size="8px" fill="#000000" x="84.3926727517183" y="3" transform="rotate(180 84.3926727517183 0)" font-family="sans-serif">IS_CONNECTED</text></g><g class="relationship" transform="translate(106.65891487088781 72.25239266930116) rotate(310.88023072803367)"><path class="outline" fill="#A5ABB6" stroke="none" d="M 40 0.5 L 56.31790366569821 0.5 L 56.31790366569821 -0.5 L 40 -0.5 Z M 124.99368491569821 0.5 L 141.31158858139642 0.5 L 141.31158858139642 3.5 L 148.31158858139642 0 L 141.31158858139642 -3.5 L 141.31158858139642 -0.5 L 124.99368491569821 -0.5 Z"/><text text-anchor="middle" pointer-events="none" font-size="8px" fill="#000000" x="90.65579429069821" y="3" font-family="sans-serif">IS_CONNECTED</text></g><g class="relationship" transform="translate(106.65891487088781 72.25239266930116) rotate(444.7598088348192)"><path class="outline" fill="#A5ABB6" stroke="none" d="M 40 0.5 L 47.41765642308964 0.5 L 47.41765642308964 -0.5 L 40 -0.5 Z M 116.09343767308964 0.5 L 123.51109409617928 0.5 L 123.51109409617928 3.5 L 130.51109409617928 0 L 123.51109409617928 -3.5 L 123.51109409617928 -0.5 L 116.09343767308964 -0.5 Z"/><text text-anchor="middle" pointer-events="none" font-size="8px" fill="#000000" x="81.75554704808964" y="3" font-family="sans-serif">IS_CONNECTED</text></g><g class="relationship" transform="translate(106.65891487088781 72.25239266930116) rotate(223.77290288367897)"><path class="outline" fill="#A5ABB6" stroke="none" d="M 40 0.5 L 50.47307148224722 0.5 L 50.47307148224722 -0.5 L 40 -0.5 Z M 118.85588398224722 0.5 L 129.32895546449444 0.5 L 129.32895546449444 3.5 L 136.32895546449444 0 L 129.32895546449444 -3.5 L 129.32895546449444 -0.5 L 118.85588398224722 -0.5 Z"/><text text-anchor="middle" pointer-events="none" font-size="8px" fill="#000000" x="84.66447773224722" y="3" transform="rotate(180 84.66447773224722 0)" font-family="sans-serif">NEAREST_PATH</text></g></g><g class="layer nodes"><g class="node" transform="translate(106.65891487088781,72.25239266930116)"><circle class="outline" cx="0" cy="0" r="40" fill="#4C8EDA" stroke="#2870c2" stroke-width="2px"/><text text-anchor="middle" pointer-events="none" font-family="sans-serif" dy="2.5" font-size="40" fill="#FFFFFF"/><text text-anchor="middle" pointer-events="none" x="0" y="5" font-size="10px" fill="#FFFFFF" font-family="sans-serif"> Total Rf Heliport</text></g><g class="node" transform="translate(220.9281404767428,197.08468012411387)"><circle class="outline" cx="0" cy="0" r="40" fill="#4C8EDA" stroke="#2870c2" stroke-width="2px"/><text text-anchor="middle" pointer-events="none" font-family="sans-serif" dy="2.5" font-size="40" fill="#FFFFFF"/><text text-anchor="middle" pointer-events="none" font-family="sans-serif" dy="2.5" font-size="40" fill="#FFFFFF"/><text text-anchor="middle" pointer-events="none" x="0" y="0" font-size="10px" fill="#FFFFFF" font-family="sans-serif"> Barnesville</text><text text-anchor="middle" pointer-events="none" x="0" y="10" font-size="10px" fill="#FFFFFF" font-family="sans-serif"> Municipal Airport</text></g><g class="node" transform="translate(278.69277814878006,111.35605341099648)"><circle class="outline" cx="0" cy="0" r="40" fill="#4C8EDA" stroke="#2870c2" stroke-width="2px"/><text text-anchor="middle" pointer-events="none" font-family="sans-serif" dy="2.5" font-size="40" fill="#FFFFFF"/><text text-anchor="middle" pointer-events="none" font-family="sans-serif" dy="2.5" font-size="40" fill="#FFFFFF"/><text text-anchor="middle" pointer-events="none" x="0" y="0" font-size="10px" fill="#FFFFFF" font-family="sans-serif"> Wabana</text><text text-anchor="middle" pointer-events="none" x="0" y="10" font-size="10px" fill="#FFFFFF" font-family="sans-serif"> Seaplane Base</text></g><g class="node" transform="translate(297.4676264319421,34.729489161483414)"><circle class="outline" cx="0" cy="0" r="40" fill="#4C8EDA" stroke="#2870c2" stroke-width="2px"/><text text-anchor="middle" pointer-events="none" font-family="sans-serif" dy="2.5" font-size="40" fill="#FFFFFF"/><text text-anchor="middle" pointer-events="none" font-family="sans-serif" dy="2.5" font-size="40" fill="#FFFFFF"/><text text-anchor="middle" pointer-events="none" x="0" y="0" font-size="10px" fill="#FFFFFF" font-family="sans-serif"> Troll Farm</text><text text-anchor="middle" pointer-events="none" x="0" y="10" font-size="10px" fill="#FFFFFF" font-family="sans-serif"> Airport</text></g><g class="node" transform="translate(105.33341622537255,-105.01251959045265)"><circle class="outline" cx="0" cy="0" r="40" fill="#4C8EDA" stroke="#2870c2" stroke-width="2px"/><text text-anchor="middle" pointer-events="none" font-family="sans-serif" dy="2.5" font-size="40" fill="#FFFFFF"/><text text-anchor="middle" pointer-events="none" font-family="sans-serif" dy="2.5" font-size="40" fill="#FFFFFF"/><text text-anchor="middle" pointer-events="none" x="0" y="0" font-size="10px" fill="#FFFFFF" font-family="sans-serif"> Carey Lake</text><text text-anchor="middle" pointer-events="none" x="0" y="10" font-size="10px" fill="#FFFFFF" font-family="sans-serif"> Seaplane Base</text></g><g class="node" transform="translate(-69.29127332347133,36.22789014761433)"><circle class="outline" cx="0" cy="0" r="40" fill="#4C8EDA" stroke="#2870c2" stroke-width="2px"/><text text-anchor="middle" pointer-events="none" font-family="sans-serif" dy="2.5" font-size="40" fill="#FFFFFF"/><text text-anchor="middle" pointer-events="none" font-family="sans-serif" dy="2.5" font-size="40" fill="#FFFFFF"/><text text-anchor="middle" pointer-events="none" font-family="sans-serif" dy="2.5" font-size="40" fill="#FFFFFF"/><text text-anchor="middle" pointer-events="none" x="0" y="-5" font-size="10px" fill="#FFFFFF" font-family="sans-serif"> Bronson</text><text text-anchor="middle" pointer-events="none" x="0" y="5" font-size="10px" fill="#FFFFFF" font-family="sans-serif"> Methodist</text><text text-anchor="middle" pointer-events="none" x="0" y="15" font-size="10px" fill="#FFFFFF" font-family="sans-serif"> Hospital Helip…</text></g><g class="node" transform="translate(-69.81551469856348,142.0714114320032)"><circle class="outline" cx="0" cy="0" r="40" fill="#4C8EDA" stroke="#2870c2" stroke-width="2px"/><text text-anchor="middle" pointer-events="none" font-family="sans-serif" dy="2.5" font-size="40" fill="#FFFFFF"/><text text-anchor="middle" pointer-events="none" font-family="sans-serif" dy="2.5" font-size="40" fill="#FFFFFF"/><text text-anchor="middle" pointer-events="none" x="0" y="0" font-size="10px" fill="#FFFFFF" font-family="sans-serif"> Providence</text><text text-anchor="middle" pointer-events="none" x="0" y="10" font-size="10px" fill="#FFFFFF" font-family="sans-serif"> Hospital Heliport</text></g><g class="node" transform="translate(21.027705437747848,225.77041657783215)"><circle class="outline" cx="0" cy="0" r="40" fill="#4C8EDA" stroke="#2870c2" stroke-width="2px"/><text text-anchor="middle" pointer-events="none" font-family="sans-serif" dy="2.5" font-size="40" fill="#FFFFFF"/><text text-anchor="middle" pointer-events="none" font-family="sans-serif" dy="2.5" font-size="40" fill="#FFFFFF"/><text text-anchor="middle" pointer-events="none" font-family="sans-serif" dy="2.5" font-size="40" fill="#FFFFFF"/><text text-anchor="middle" pointer-events="none" x="0" y="-5" font-size="10px" fill="#FFFFFF" font-family="sans-serif"> Albert Guido</text><text text-anchor="middle" pointer-events="none" x="0" y="5" font-size="10px" fill="#FFFFFF" font-family="sans-serif"> Memorial</text><text text-anchor="middle" pointer-events="none" x="0" y="15" font-size="10px" fill="#FFFFFF" font-family="sans-serif"> Heliport</text></g><g class="node" transform="translate(229.90507882904134,-70.12610803796522)"><circle class="outline" cx="0" cy="0" r="40" fill="#4C8EDA" stroke="#2870c2" stroke-width="2px"/><text text-anchor="middle" pointer-events="none" font-family="sans-serif" dy="2.5" font-size="40" fill="#FFFFFF"/><text text-anchor="middle" pointer-events="none" x="0" y="5" font-size="10px" fill="#FFFFFF" font-family="sans-serif"> Cass Field</text></g><g class="node" transform="translate(122.23188731391167,242.05084890246286)"><circle class="outline" cx="0" cy="0" r="40" fill="#4C8EDA" stroke="#2870c2" stroke-width="2px"/><text text-anchor="middle" pointer-events="none" font-family="sans-serif" dy="2.5" font-size="40" fill="#FFFFFF"/><text text-anchor="middle" pointer-events="none" font-family="sans-serif" dy="2.5" font-size="40" fill="#FFFFFF"/><text text-anchor="middle" pointer-events="none" x="0" y="0" font-size="10px" fill="#FFFFFF" font-family="sans-serif"> Aero B Ranch</text><text text-anchor="middle" pointer-events="none" x="0" y="10" font-size="10px" fill="#FFFFFF" font-family="sans-serif"> Airport</text></g><g class="node" transform="translate(-20.666017172796955,-49.73228757896081)"><circle class="outline" cx="0" cy="0" r="40" fill="#4C8EDA" stroke="#2870c2" stroke-width="2px"/><text text-anchor="middle" pointer-events="none" font-family="sans-serif" dy="2.5" font-size="40" fill="#FFFFFF"/><text text-anchor="middle" pointer-events="none" font-family="sans-serif" dy="2.5" font-size="40" fill="#FFFFFF"/><text text-anchor="middle" pointer-events="none" font-family="sans-serif" dy="2.5" font-size="40" fill="#FFFFFF"/><text text-anchor="middle" pointer-events="none" x="0" y="-5" font-size="10px" fill="#FFFFFF" font-family="sans-serif"> Albert Guido</text><text text-anchor="middle" pointer-events="none" x="0" y="5" font-size="10px" fill="#FFFFFF" font-family="sans-serif"> Memorial</text><text text-anchor="middle" pointer-events="none" x="0" y="15" font-size="10px" fill="#FFFFFF" font-family="sans-serif"> Heliport</text></g></g></svg>